<svg xmlns="http://www.w3.org/2000/svg" xmlns:xlink="http://www.w3.org/1999/xlink" width="500" zoomAndPan="magnify" viewBox="0 0 375 374.999991" height="500" preserveAspectRatio="xMidYMid meet" version="1.0"><defs><g/></defs><path fill="#f1efe7" d="M 183.332031 0.140625 C 167.585938 0.671875 144.363281 5.914062 126.265625 13.269531 C 96.5625 25.34375 67.972656 48.355469 49.003906 75.457031 C 40.59375 87.472656 29.261719 106.285156 25.085938 115.167969 C 14.339844 138.023438 6.03125 170.570312 2.855469 202.261719 C 0.0078125 230.667969 7.75 268.542969 21.882812 295.347656 C 39 327.804688 53.789062 341.292969 86.511719 354.269531 C 108.308594 362.914062 147.210938 371.683594 173.386719 373.847656 C 186.640625 374.945312 189.871094 374.945312 204.308594 373.84375 C 219.789062 372.664062 232.238281 370.285156 248.25 365.449219 C 278.925781 356.179688 298.375 345.261719 319.277344 325.574219 C 332.152344 313.449219 345.003906 295.558594 353.945312 277.324219 C 360.691406 263.5625 369.496094 237.730469 372.890625 221.722656 C 375.21875 210.75 375.5 207.273438 375.550781 188.835938 C 375.597656 170.808594 375.316406 166.867188 373.308594 157.425781 C 368.441406 134.566406 359.6875 112.535156 349.320312 97.054688 C 340.335938 83.632812 324.765625 63.378906 317.742188 55.980469 C 301.070312 38.414062 271.851562 19.625 250.199219 12.550781 C 238.421875 8.703125 200.0625 0.890625 189.582031 0.207031 C 187.675781 0.0859375 185.578125 0.0625 183.332031 0.140625 Z M 183.332031 0.140625 " fill-opacity="1" fill-rule="nonzero"/><g fill="#6a6a44" fill-opacity="1"><g transform="translate(86.567605, 277.289367)"><g><path d="M 80.71875 -186.25 C 90.613281 -186.25 100.289062 -184.804688 109.75 -181.921875 C 119.21875 -179.046875 126.242188 -176.203125 130.828125 -173.390625 L 137.46875 -168.96875 L 120.625 -135.703125 C 119.289062 -136.585938 117.441406 -137.734375 115.078125 -139.140625 C 112.710938 -140.546875 108.273438 -142.429688 101.765625 -144.796875 C 95.265625 -147.160156 89.207031 -148.34375 83.59375 -148.34375 C 76.644531 -148.34375 71.285156 -146.863281 67.515625 -143.90625 C 63.742188 -140.945312 61.859375 -136.957031 61.859375 -131.9375 C 61.859375 -129.414062 62.742188 -127.082031 64.515625 -124.9375 C 66.296875 -122.800781 69.328125 -120.515625 73.609375 -118.078125 C 77.898438 -115.640625 81.671875 -113.679688 84.921875 -112.203125 C 88.171875 -110.722656 93.195312 -108.503906 100 -105.546875 C 111.820312 -100.515625 121.910156 -93.675781 130.265625 -85.03125 C 138.617188 -76.382812 142.796875 -66.59375 142.796875 -55.65625 C 142.796875 -45.15625 140.910156 -35.988281 137.140625 -28.15625 C 133.367188 -20.320312 128.191406 -14.1875 121.609375 -9.75 C 115.035156 -5.320312 107.757812 -2.035156 99.78125 0.109375 C 91.800781 2.253906 83.15625 3.328125 73.84375 3.328125 C 65.851562 3.328125 58.015625 2.515625 50.328125 0.890625 C 42.640625 -0.734375 36.207031 -2.765625 31.03125 -5.203125 C 25.863281 -7.648438 21.207031 -10.054688 17.0625 -12.421875 C 12.925781 -14.785156 9.898438 -16.78125 7.984375 -18.40625 L 5.09375 -20.84375 L 25.9375 -55.875 C 27.71875 -54.394531 30.160156 -52.507812 33.265625 -50.21875 C 36.367188 -47.925781 41.875 -44.859375 49.78125 -41.015625 C 57.6875 -37.171875 64.671875 -35.25 70.734375 -35.25 C 88.328125 -35.25 97.125 -41.238281 97.125 -53.21875 C 97.125 -55.726562 96.492188 -58.054688 95.234375 -60.203125 C 93.972656 -62.347656 91.753906 -64.488281 88.578125 -66.625 C 85.398438 -68.769531 82.59375 -70.46875 80.15625 -71.71875 C 77.71875 -72.976562 73.726562 -74.898438 68.1875 -77.484375 C 62.644531 -80.078125 58.539062 -82.039062 55.875 -83.375 C 44.789062 -88.84375 36.21875 -95.675781 30.15625 -103.875 C 24.09375 -112.082031 21.0625 -120.914062 21.0625 -130.375 C 21.0625 -146.789062 27.117188 -160.207031 39.234375 -170.625 C 51.359375 -181.039062 65.1875 -186.25 80.71875 -186.25 Z M 80.71875 -186.25 "/></g></g></g><g fill="#6a6a44" fill-opacity="1"><g transform="translate(235.563631, 277.289367)"><g><path d="M 38.578125 -47.453125 C 45.671875 -47.453125 51.691406 -44.972656 56.640625 -40.015625 C 61.597656 -35.066406 64.078125 -29.046875 64.078125 -21.953125 C 64.078125 -15.003906 61.597656 -9.050781 56.640625 -4.09375 C 51.691406 0.851562 45.671875 3.328125 38.578125 3.328125 C 31.628906 3.328125 25.675781 0.851562 20.71875 -4.09375 C 15.769531 -9.050781 13.296875 -15.003906 13.296875 -21.953125 C 13.296875 -29.046875 15.769531 -35.066406 20.71875 -40.015625 C 25.675781 -44.972656 31.628906 -47.453125 38.578125 -47.453125 Z M 38.578125 -47.453125 "/></g></g></g><g fill="#6a6a44" fill-opacity="1"><g transform="translate(80.963874, 251.365292)"><g><path d="M 3.0625 -5 C 2.601562 -4.175781 2 -3.5625 1.25 -3.15625 C 0.5 -2.75 -0.375 -2.59375 -1.375 -2.6875 C -2.382812 -2.789062 -3.472656 -3.171875 -4.640625 -3.828125 C -5.816406 -4.492188 -6.703125 -5.238281 -7.296875 -6.0625 C -7.890625 -6.882812 -8.203125 -7.726562 -8.234375 -8.59375 C -8.265625 -9.457031 -8.039062 -10.3125 -7.5625 -11.15625 C -7.195312 -11.800781 -6.769531 -12.296875 -6.28125 -12.640625 C -5.789062 -12.992188 -5.21875 -13.195312 -4.5625 -13.25 L -4.53125 -13.46875 L -9.796875 -16.453125 L -8.328125 -19.0625 L 6.140625 -10.890625 L 4.671875 -8.28125 L 3.34375 -9.03125 L 3.203125 -8.875 C 3.523438 -8.300781 3.679688 -7.6875 3.671875 -7.03125 C 3.671875 -6.375 3.46875 -5.695312 3.0625 -5 Z M 1.359375 -7.078125 C 1.765625 -7.796875 1.828125 -8.515625 1.546875 -9.234375 C 1.265625 -9.960938 0.59375 -10.625 -0.46875 -11.21875 C -1.53125 -11.820312 -2.441406 -12.054688 -3.203125 -11.921875 C -3.960938 -11.785156 -4.546875 -11.359375 -4.953125 -10.640625 C -5.378906 -9.867188 -5.453125 -9.140625 -5.171875 -8.453125 C -4.898438 -7.765625 -4.21875 -7.113281 -3.125 -6.5 C -2.039062 -5.882812 -1.128906 -5.632812 -0.390625 -5.75 C 0.347656 -5.863281 0.929688 -6.304688 1.359375 -7.078125 Z M 1.359375 -7.078125 "/></g></g></g><g fill="#6a6a44" fill-opacity="1"><g transform="translate(87.944076, 239.00089)"><g><path d="M -9.984375 -9.296875 C -10.242188 -8.828125 -10.597656 -8.523438 -11.046875 -8.390625 C -11.503906 -8.265625 -11.957031 -8.328125 -12.40625 -8.578125 C -12.851562 -8.835938 -13.132812 -9.191406 -13.25 -9.640625 C -13.363281 -10.085938 -13.289062 -10.546875 -13.03125 -11.015625 C -12.851562 -11.328125 -12.628906 -11.566406 -12.359375 -11.734375 C -12.085938 -11.898438 -11.800781 -11.984375 -11.5 -11.984375 C -11.195312 -11.992188 -10.898438 -11.914062 -10.609375 -11.75 C -10.316406 -11.59375 -10.09375 -11.378906 -9.9375 -11.109375 C -9.78125 -10.847656 -9.703125 -10.554688 -9.703125 -10.234375 C -9.710938 -9.921875 -9.804688 -9.609375 -9.984375 -9.296875 Z M 0.84375 -1.484375 L -9.46875 -7.3125 L -8.015625 -9.90625 L 2.296875 -4.078125 Z M 0.84375 -1.484375 "/></g></g></g><g fill="#6a6a44" fill-opacity="1"><g transform="translate(91.080414, 233.445327)"><g><path d="M 1.171875 -12.765625 L -2.5625 -6.140625 C -1.613281 -5.710938 -0.8125 -5.597656 -0.15625 -5.796875 C 0.488281 -6.003906 1.023438 -6.488281 1.453125 -7.25 C 1.785156 -7.832031 1.941406 -8.367188 1.921875 -8.859375 C 1.910156 -9.359375 1.75 -9.847656 1.4375 -10.328125 L 1.546875 -10.515625 L 3.625 -11.640625 C 4.144531 -10.890625 4.4375 -10.046875 4.5 -9.109375 C 4.570312 -8.179688 4.285156 -7.148438 3.640625 -6.015625 C 3.035156 -4.941406 2.3125 -4.128906 1.46875 -3.578125 C 0.632812 -3.035156 -0.300781 -2.78125 -1.34375 -2.8125 C -2.382812 -2.84375 -3.484375 -3.179688 -4.640625 -3.828125 C -5.804688 -4.492188 -6.664062 -5.273438 -7.21875 -6.171875 C -7.769531 -7.078125 -8.03125 -8.015625 -8 -8.984375 C -7.976562 -9.960938 -7.703125 -10.925781 -7.171875 -11.875 C -6.347656 -13.332031 -5.328125 -14.226562 -4.109375 -14.5625 C -2.890625 -14.90625 -1.535156 -14.65625 -0.046875 -13.8125 C 0.503906 -13.5 0.914062 -13.238281 1.1875 -13.03125 Z M -1.75 -11.5 C -2.539062 -11.914062 -3.210938 -12.050781 -3.765625 -11.90625 C -4.316406 -11.769531 -4.78125 -11.378906 -5.15625 -10.734375 C -5.882812 -9.421875 -5.566406 -8.226562 -4.203125 -7.15625 Z M -1.75 -11.5 "/></g></g></g><g fill="#a23c26" fill-opacity="1"><g transform="translate(114.32216, 102.723441)"><g><path d="M 0.671875 -0.5 L -0.859375 -2.5625 L 2.1875 -4.8125 L -3.640625 -12.65625 L -3.875 -12.578125 C -4.15625 -12.046875 -4.457031 -11.5625 -4.78125 -11.125 C -5.101562 -10.695312 -5.507812 -10.253906 -6 -9.796875 L -7.59375 -11.921875 C -6.40625 -13.242188 -5.59375 -14.515625 -5.15625 -15.734375 L -3.1875 -17.1875 L 4.640625 -6.640625 L 7.359375 -8.671875 L 8.890625 -6.609375 Z M 0.671875 -0.5 "/></g></g></g><g fill="#a23c26" fill-opacity="1"><g transform="translate(123.628101, 95.816996)"><g><path d="M 5.265625 -3.640625 C 3.910156 -2.640625 2.625 -2.128906 1.40625 -2.109375 C 0.195312 -2.085938 -0.90625 -2.523438 -1.90625 -3.421875 L -0.65625 -5.703125 L -0.4375 -5.8125 C 0.300781 -5.269531 0.984375 -4.984375 1.609375 -4.953125 C 2.242188 -4.921875 2.914062 -5.164062 3.625 -5.6875 C 4.300781 -6.1875 4.695312 -6.726562 4.8125 -7.3125 C 4.925781 -7.894531 4.757812 -8.488281 4.3125 -9.09375 C 3.875 -9.6875 3.359375 -10.007812 2.765625 -10.0625 C 2.179688 -10.125 1.550781 -9.898438 0.875 -9.390625 L -1.03125 -7.984375 L -2.46875 -9.921875 L -0.8125 -11.15625 C -0.25 -11.570312 0.09375 -12.046875 0.21875 -12.578125 C 0.34375 -13.109375 0.210938 -13.628906 -0.171875 -14.140625 C -0.554688 -14.660156 -1.003906 -14.9375 -1.515625 -14.96875 C -2.023438 -15.007812 -2.554688 -14.820312 -3.109375 -14.40625 C -3.671875 -13.988281 -4.066406 -13.484375 -4.296875 -12.890625 C -4.535156 -12.304688 -4.625 -11.691406 -4.5625 -11.046875 L -4.734375 -10.859375 L -7.171875 -11.421875 C -7.171875 -12.347656 -6.957031 -13.25 -6.53125 -14.125 C -6.113281 -15.007812 -5.425781 -15.8125 -4.46875 -16.53125 C -3.144531 -17.507812 -1.929688 -17.976562 -0.828125 -17.9375 C 0.273438 -17.90625 1.195312 -17.390625 1.9375 -16.390625 C 2.382812 -15.785156 2.628906 -15.160156 2.671875 -14.515625 C 2.710938 -13.878906 2.585938 -13.210938 2.296875 -12.515625 L 2.421875 -12.34375 C 4.253906 -12.90625 5.753906 -12.40625 6.921875 -10.84375 C 7.492188 -10.0625 7.828125 -9.257812 7.921875 -8.4375 C 8.015625 -7.613281 7.84375 -6.789062 7.40625 -5.96875 C 6.96875 -5.15625 6.253906 -4.378906 5.265625 -3.640625 Z M 5.265625 -3.640625 "/></g></g></g><g fill="#a23c26" fill-opacity="1"><g transform="translate(133.632601, 88.392111)"><g><path d="M 2.5 -1.734375 C 2.1875 -1.503906 1.867188 -1.363281 1.546875 -1.3125 C 1.222656 -1.257812 0.914062 -1.296875 0.625 -1.421875 C 0.34375 -1.554688 0.0976562 -1.765625 -0.109375 -2.046875 C -0.316406 -2.316406 -0.4375 -2.609375 -0.46875 -2.921875 C -0.507812 -3.234375 -0.457031 -3.535156 -0.3125 -3.828125 C -0.175781 -4.128906 0.046875 -4.394531 0.359375 -4.625 C 0.660156 -4.851562 0.972656 -4.992188 1.296875 -5.046875 C 1.617188 -5.097656 1.921875 -5.054688 2.203125 -4.921875 C 2.492188 -4.785156 2.742188 -4.582031 2.953125 -4.3125 C 3.265625 -3.882812 3.382812 -3.429688 3.3125 -2.953125 C 3.238281 -2.484375 2.96875 -2.078125 2.5 -1.734375 Z M 2.5 -1.734375 "/></g></g></g><g fill="#a23c26" fill-opacity="1"><g transform="translate(145.175453, 84.575286)"><g><path d="M 0.828125 -0.015625 L 0.78125 -2.578125 L 4.578125 -2.65625 L 4.390625 -12.4375 L 4.140625 -12.484375 C 3.609375 -12.210938 3.082031 -11.992188 2.5625 -11.828125 C 2.050781 -11.671875 1.460938 -11.546875 0.796875 -11.453125 L 0.75 -14.109375 C 2.488281 -14.503906 3.882812 -15.066406 4.9375 -15.796875 L 7.390625 -15.84375 L 7.640625 -2.703125 L 11.03125 -2.765625 L 11.078125 -0.203125 Z M 0.828125 -0.015625 "/></g></g></g><g fill="#a23c26" fill-opacity="1"><g transform="translate(156.762214, 84.359585)"><g><path d="M 0.75 -1.265625 C 0.726562 -2.128906 0.804688 -2.859375 0.984375 -3.453125 C 1.160156 -4.054688 1.457031 -4.601562 1.875 -5.09375 C 2.300781 -5.59375 2.898438 -6.140625 3.671875 -6.734375 L 5.734375 -8.28125 C 6.304688 -8.695312 6.75 -9.054688 7.0625 -9.359375 C 7.375 -9.660156 7.609375 -9.976562 7.765625 -10.3125 C 7.921875 -10.65625 8 -11.035156 8 -11.453125 C 7.976562 -12.085938 7.769531 -12.570312 7.375 -12.90625 C 6.976562 -13.25 6.394531 -13.414062 5.625 -13.40625 C 4.882812 -13.394531 4.222656 -13.207031 3.640625 -12.84375 C 3.066406 -12.476562 2.601562 -11.984375 2.25 -11.359375 L 2.046875 -11.3125 L 0.28125 -13.1875 C 0.832031 -14.03125 1.550781 -14.710938 2.4375 -15.234375 C 3.332031 -15.753906 4.421875 -16.023438 5.703125 -16.046875 C 6.867188 -16.066406 7.847656 -15.890625 8.640625 -15.515625 C 9.441406 -15.140625 10.039062 -14.617188 10.4375 -13.953125 C 10.84375 -13.296875 11.050781 -12.535156 11.0625 -11.671875 C 11.082031 -10.921875 10.941406 -10.234375 10.640625 -9.609375 C 10.335938 -8.992188 9.914062 -8.414062 9.375 -7.875 C 8.832031 -7.34375 8.140625 -6.773438 7.296875 -6.171875 L 5.453125 -4.84375 C 4.898438 -4.425781 4.515625 -4.054688 4.296875 -3.734375 C 4.085938 -3.421875 3.988281 -3.066406 4 -2.671875 L 11.078125 -2.796875 L 11.125 -0.203125 L 0.765625 -0.015625 Z M 0.75 -1.265625 "/></g></g></g><g fill="#a23c26" fill-opacity="1"><g transform="translate(169.014756, 84.131489)"><g><path d="M 3.03125 0.03125 C 2.644531 0.0390625 2.304688 -0.0234375 2.015625 -0.171875 C 1.734375 -0.316406 1.507812 -0.523438 1.34375 -0.796875 C 1.1875 -1.066406 1.101562 -1.375 1.09375 -1.71875 C 1.082031 -2.0625 1.148438 -2.367188 1.296875 -2.640625 C 1.453125 -2.921875 1.671875 -3.140625 1.953125 -3.296875 C 2.242188 -3.460938 2.582031 -3.550781 2.96875 -3.5625 C 3.351562 -3.5625 3.691406 -3.488281 3.984375 -3.34375 C 4.273438 -3.195312 4.5 -2.988281 4.65625 -2.71875 C 4.8125 -2.445312 4.894531 -2.140625 4.90625 -1.796875 C 4.914062 -1.273438 4.75 -0.84375 4.40625 -0.5 C 4.070312 -0.15625 3.613281 0.0195312 3.03125 0.03125 Z M 3.03125 0.03125 "/></g></g></g><g fill="#a23c26" fill-opacity="1"><g transform="translate(180.836283, 83.357024)"><g><path d="M 1.171875 -0.890625 C 1.472656 -1.691406 1.816406 -2.335938 2.203125 -2.828125 C 2.585938 -3.328125 3.070312 -3.722656 3.65625 -4.015625 C 4.238281 -4.316406 4.992188 -4.597656 5.921875 -4.859375 L 8.421875 -5.515625 C 9.097656 -5.703125 9.640625 -5.875 10.046875 -6.03125 C 10.453125 -6.1875 10.789062 -6.390625 11.0625 -6.640625 C 11.332031 -6.898438 11.539062 -7.222656 11.6875 -7.609375 C 11.914062 -8.203125 11.910156 -8.734375 11.671875 -9.203125 C 11.429688 -9.671875 10.953125 -10.046875 10.234375 -10.328125 C 9.546875 -10.585938 8.863281 -10.65625 8.1875 -10.53125 C 7.519531 -10.40625 6.90625 -10.125 6.34375 -9.6875 L 6.125 -9.71875 L 5.203125 -12.109375 C 6.023438 -12.691406 6.945312 -13.054688 7.96875 -13.203125 C 9 -13.359375 10.113281 -13.207031 11.3125 -12.75 C 12.394531 -12.332031 13.234375 -11.796875 13.828125 -11.140625 C 14.429688 -10.492188 14.789062 -9.789062 14.90625 -9.03125 C 15.03125 -8.269531 14.9375 -7.484375 14.625 -6.671875 C 14.363281 -5.972656 13.972656 -5.390625 13.453125 -4.921875 C 12.941406 -4.460938 12.332031 -4.085938 11.625 -3.796875 C 10.925781 -3.503906 10.078125 -3.234375 9.078125 -2.984375 L 6.875 -2.4375 C 6.195312 -2.257812 5.703125 -2.0625 5.390625 -1.84375 C 5.078125 -1.632812 4.847656 -1.34375 4.703125 -0.96875 L 11.3125 1.5625 L 10.390625 3.984375 L 0.71875 0.28125 Z M 1.171875 -0.890625 "/></g></g></g><g fill="#a23c26" fill-opacity="1"><g transform="translate(192.281056, 87.738118)"><g><path d="M 7.09375 2.953125 C 5.894531 2.492188 4.953125 1.828125 4.265625 0.953125 C 3.585938 0.078125 3.21875 -1.007812 3.15625 -2.3125 C 3.09375 -3.625 3.390625 -5.144531 4.046875 -6.875 C 4.703125 -8.582031 5.488281 -9.90625 6.40625 -10.84375 C 7.332031 -11.78125 8.34375 -12.34375 9.4375 -12.53125 C 10.53125 -12.726562 11.675781 -12.597656 12.875 -12.140625 C 14.070312 -11.679688 15.007812 -11.015625 15.6875 -10.140625 C 16.363281 -9.265625 16.734375 -8.171875 16.796875 -6.859375 C 16.867188 -5.546875 16.578125 -4.035156 15.921875 -2.328125 C 15.265625 -0.597656 14.472656 0.726562 13.546875 1.65625 C 12.617188 2.59375 11.609375 3.15625 10.515625 3.34375 C 9.429688 3.539062 8.289062 3.410156 7.09375 2.953125 Z M 8.03125 0.5 C 8.675781 0.738281 9.28125 0.785156 9.84375 0.640625 C 10.40625 0.492188 10.945312 0.0976562 11.46875 -0.546875 C 12 -1.203125 12.507812 -2.164062 13 -3.4375 C 13.476562 -4.6875 13.738281 -5.734375 13.78125 -6.578125 C 13.832031 -7.421875 13.695312 -8.085938 13.375 -8.578125 C 13.050781 -9.066406 12.566406 -9.429688 11.921875 -9.671875 C 11.265625 -9.921875 10.65625 -9.972656 10.09375 -9.828125 C 9.53125 -9.679688 8.984375 -9.273438 8.453125 -8.609375 C 7.929688 -7.953125 7.429688 -7 6.953125 -5.75 C 6.460938 -4.476562 6.191406 -3.425781 6.140625 -2.59375 C 6.097656 -1.757812 6.238281 -1.097656 6.5625 -0.609375 C 6.882812 -0.117188 7.375 0.25 8.03125 0.5 Z M 8.03125 0.5 "/></g></g></g><g fill="#a23c26" fill-opacity="1"><g transform="translate(206.403949, 93.144404)"><g><path d="M 1.171875 -0.890625 C 1.472656 -1.691406 1.816406 -2.335938 2.203125 -2.828125 C 2.585938 -3.328125 3.070312 -3.722656 3.65625 -4.015625 C 4.238281 -4.316406 4.992188 -4.597656 5.921875 -4.859375 L 8.421875 -5.515625 C 9.097656 -5.703125 9.640625 -5.875 10.046875 -6.03125 C 10.453125 -6.1875 10.789062 -6.390625 11.0625 -6.640625 C 11.332031 -6.898438 11.539062 -7.222656 11.6875 -7.609375 C 11.914062 -8.203125 11.910156 -8.734375 11.671875 -9.203125 C 11.429688 -9.671875 10.953125 -10.046875 10.234375 -10.328125 C 9.546875 -10.585938 8.863281 -10.65625 8.1875 -10.53125 C 7.519531 -10.40625 6.90625 -10.125 6.34375 -9.6875 L 6.125 -9.71875 L 5.203125 -12.109375 C 6.023438 -12.691406 6.945312 -13.054688 7.96875 -13.203125 C 9 -13.359375 10.113281 -13.207031 11.3125 -12.75 C 12.394531 -12.332031 13.234375 -11.796875 13.828125 -11.140625 C 14.429688 -10.492188 14.789062 -9.789062 14.90625 -9.03125 C 15.03125 -8.269531 14.9375 -7.484375 14.625 -6.671875 C 14.363281 -5.972656 13.972656 -5.390625 13.453125 -4.921875 C 12.941406 -4.460938 12.332031 -4.085938 11.625 -3.796875 C 10.925781 -3.503906 10.078125 -3.234375 9.078125 -2.984375 L 6.875 -2.4375 C 6.195312 -2.257812 5.703125 -2.0625 5.390625 -1.84375 C 5.078125 -1.632812 4.847656 -1.34375 4.703125 -0.96875 L 11.3125 1.5625 L 10.390625 3.984375 L 0.71875 0.28125 Z M 1.171875 -0.890625 "/></g></g></g><g fill="#a23c26" fill-opacity="1"><g transform="translate(217.848723, 97.525497)"><g><path d="M 6.03125 2.546875 C 4.5625 1.984375 3.515625 1.226562 2.890625 0.28125 C 2.265625 -0.65625 2.039062 -1.726562 2.21875 -2.9375 L 4.765625 -3.0625 L 4.984375 -2.921875 C 4.953125 -2.203125 5.082031 -1.59375 5.375 -1.09375 C 5.675781 -0.601562 6.195312 -0.21875 6.9375 0.0625 C 7.695312 0.351562 8.367188 0.359375 8.953125 0.078125 C 9.546875 -0.203125 10.003906 -0.769531 10.328125 -1.625 C 10.660156 -2.476562 10.703125 -3.203125 10.453125 -3.796875 C 10.210938 -4.398438 9.738281 -4.835938 9.03125 -5.109375 C 8.488281 -5.316406 7.988281 -5.375 7.53125 -5.28125 C 7.082031 -5.1875 6.640625 -4.957031 6.203125 -4.59375 L 3.875 -5.6875 L 7.390625 -13.984375 L 16.125 -10.640625 L 15.203125 -8.203125 L 8.90625 -10.625 L 7.328125 -6.9375 L 7.53125 -6.8125 C 8.03125 -7.125 8.5625 -7.300781 9.125 -7.34375 C 9.695312 -7.394531 10.316406 -7.296875 10.984375 -7.046875 C 11.828125 -6.722656 12.488281 -6.253906 12.96875 -5.640625 C 13.445312 -5.035156 13.710938 -4.300781 13.765625 -3.4375 C 13.828125 -2.582031 13.65625 -1.625 13.25 -0.5625 C 12.84375 0.519531 12.289062 1.363281 11.59375 1.96875 C 10.894531 2.582031 10.070312 2.9375 9.125 3.03125 C 8.1875 3.132812 7.15625 2.972656 6.03125 2.546875 Z M 6.03125 2.546875 "/></g></g></g></svg>