<svg xmlns="http://www.w3.org/2000/svg" xmlns:xlink="http://www.w3.org/1999/xlink" width="500" zoomAndPan="magnify" viewBox="0 0 375 374.999991" height="500" preserveAspectRatio="xMidYMid meet" version="1.0"><defs><g/><clipPath id="557ba193bb"><path d="M 167 160 L 206 160 L 206 202 L 167 202 Z M 167 160 " clip-rule="nonzero"/></clipPath><clipPath id="e33e43e8bc"><path d="M 168.339844 158.621094 L 207.242188 161.34375 L 204.257812 203.992188 L 165.351562 201.265625 Z M 168.339844 158.621094 " clip-rule="nonzero"/></clipPath><clipPath id="bda4fca09f"><path d="M 168.339844 158.621094 L 207.242188 161.34375 L 204.257812 203.992188 L 165.351562 201.265625 Z M 168.339844 158.621094 " clip-rule="nonzero"/></clipPath><clipPath id="82c9f4883a"><path d="M 124.664062 141.328125 L 206 141.328125 L 206 158.578125 L 124.664062 158.578125 Z M 124.664062 141.328125 " clip-rule="nonzero"/></clipPath><clipPath id="f8f29ebafe"><path d="M 166.476562 208.289062 L 248.226562 208.289062 L 248.226562 222.539062 L 166.476562 222.539062 Z M 166.476562 208.289062 " clip-rule="nonzero"/></clipPath></defs><rect x="-37.5" width="450" fill="#ffffff" y="-37.499999" height="449.999989" fill-opacity="1"/><rect x="-37.5" width="450" fill="#f1efe7" y="-37.499999" height="449.999989" fill-opacity="1"/><g fill="#6a6a44" fill-opacity="1"><g transform="translate(89.496423, 101.315269)"><g><path d="M -9.070312 -11.667969 L -6.289062 -14.550781 C -5.027344 -15.863281 -3.71875 -16.695312 -2.371094 -17.054688 C -1.023438 -17.414062 0.25 -17.394531 1.449219 -16.996094 C 2.648438 -16.597656 3.703125 -15.960938 4.617188 -15.078125 C 5.636719 -14.097656 6.308594 -12.992188 6.632812 -11.761719 C 6.953125 -10.53125 6.941406 -9.316406 6.597656 -8.113281 C 6.253906 -6.910156 5.628906 -5.839844 4.730469 -4.910156 L 1.460938 -1.515625 Z M 3.097656 -5.953125 C 3.84375 -6.730469 4.363281 -7.570312 4.644531 -8.476562 C 4.929688 -9.382812 4.945312 -10.289062 4.695312 -11.195312 C 4.445312 -12.101562 3.917969 -12.945312 3.113281 -13.722656 C 2.285156 -14.515625 1.402344 -15.019531 0.464844 -15.234375 C -0.472656 -15.445312 -1.382812 -15.398438 -2.265625 -15.097656 C -3.148438 -14.792969 -3.917969 -14.296875 -4.585938 -13.609375 L -6.355469 -11.773438 L 1.453125 -4.246094 Z M 3.097656 -5.953125 "/></g></g></g><g fill="#6a6a44" fill-opacity="1"><g transform="translate(102.668016, 88.102632)"><g><path d="M 5.515625 -8.9375 L 1.015625 -5.5625 L 2.074219 -1.554688 L 0.519531 -0.386719 L -3.5 -16.414062 L -3.40625 -16.484375 L 10.847656 -8.128906 L 9.035156 -6.769531 Z M 3.960938 -9.894531 L -0.910156 -12.921875 L 0.5625 -7.347656 Z M 3.960938 -9.894531 "/></g></g></g><g fill="#6a6a44" fill-opacity="1"><g transform="translate(116.827134, 77.704552)"><g><path d="M 6.511719 -19.800781 L 13.425781 -6.363281 L 13.371094 -6.335938 L -1.167969 -11.117188 L 3.632812 -1.871094 L 1.871094 -0.960938 L -5.027344 -14.367188 L -4.933594 -14.410156 L 9.644531 -9.511719 L 4.765625 -18.902344 Z M 6.511719 -19.800781 "/></g></g></g><g fill="#6a6a44" fill-opacity="1"><g transform="translate(135.101849, 68.784614)"><g><path d="M 6.570312 -17.484375 L 7.148438 -15.691406 L -0.0351562 -13.378906 L 1.328125 -9.140625 L 7.742188 -11.207031 L 8.316406 -9.417969 L 1.90625 -7.351562 L 3.289062 -3.058594 L 10.742188 -5.457031 L 11.324219 -3.644531 L 2.003906 -0.644531 L -2.480469 -14.570312 Z M 6.570312 -17.484375 "/></g></g></g><g fill="#6a6a44" fill-opacity="1"><g transform="translate(151.05196, 63.936281)"><g><path d="M 1.585938 -15.097656 L 3.695312 -2.550781 L 11.039062 -3.785156 L 11.351562 -1.90625 L 2.074219 -0.347656 L -0.347656 -14.773438 Z M 1.585938 -15.097656 "/></g></g></g><g fill="#6a6a44" fill-opacity="1"><g transform="translate(167.037553, 61.641205)"><g/></g></g><g fill="#6a6a44" fill-opacity="1"><g transform="translate(176.969406, 61.100262)"><g><path d="M 11.296875 0.839844 L 10.207031 -0.863281 C 9.738281 -0.34375 9.136719 0.0546875 8.40625 0.332031 C 7.675781 0.609375 6.859375 0.710938 5.957031 0.644531 C 5.042969 0.578125 4.234375 0.328125 3.527344 -0.101562 C 2.824219 -0.535156 2.285156 -1.089844 1.917969 -1.773438 C 1.546875 -2.457031 1.394531 -3.210938 1.457031 -4.03125 C 1.507812 -4.714844 1.726562 -5.339844 2.113281 -5.898438 C 2.5 -6.457031 3 -6.925781 3.617188 -7.296875 C 4.230469 -7.671875 4.890625 -7.921875 5.589844 -8.042969 L 5.007812 -8.941406 C 4.394531 -10 4.117188 -10.925781 4.179688 -11.71875 C 4.222656 -12.296875 4.40625 -12.832031 4.734375 -13.320312 C 5.058594 -13.8125 5.507812 -14.191406 6.074219 -14.460938 C 6.644531 -14.730469 7.289062 -14.835938 8.015625 -14.78125 C 8.757812 -14.726562 9.433594 -14.527344 10.050781 -14.183594 C 10.667969 -13.839844 11.175781 -13.425781 11.570312 -12.933594 L 10.507812 -11.695312 C 9.652344 -12.585938 8.882812 -13.054688 8.195312 -13.105469 C 7.632812 -13.148438 7.164062 -13.007812 6.796875 -12.683594 C 6.425781 -12.359375 6.222656 -11.941406 6.183594 -11.429688 C 6.148438 -10.945312 6.328125 -10.351562 6.722656 -9.644531 L 10.214844 -4.210938 L 11.875 -7.738281 L 13.691406 -7.605469 L 11.269531 -2.570312 L 13.578125 1.007812 Z M 6.328125 -1.089844 C 6.988281 -1.042969 7.566406 -1.132812 8.0625 -1.359375 C 8.5625 -1.585938 8.960938 -1.902344 9.261719 -2.3125 L 6.535156 -6.574219 C 6.046875 -6.582031 5.578125 -6.476562 5.121094 -6.253906 C 4.664062 -6.03125 4.289062 -5.714844 3.996094 -5.3125 C 3.703125 -4.910156 3.535156 -4.457031 3.5 -3.960938 C 3.441406 -3.191406 3.6875 -2.539062 4.238281 -1.996094 C 4.785156 -1.457031 5.480469 -1.15625 6.328125 -1.089844 Z M 6.328125 -1.089844 "/></g></g></g><g fill="#6a6a44" fill-opacity="1"><g transform="translate(195.091526, 62.926925)"><g/></g></g><g fill="#6a6a44" fill-opacity="1"><g transform="translate(204.859754, 64.907737)"><g><path d="M 15.601562 -10.269531 L 15.011719 -8.480469 L 7.84375 -10.839844 L 6.453125 -6.609375 L 12.855469 -4.507812 L 12.265625 -2.71875 L 5.867188 -4.824219 L 4.457031 -0.535156 L 11.894531 1.90625 L 11.300781 3.714844 L 2 0.65625 L 6.566406 -13.238281 Z M 15.601562 -10.269531 "/></g></g></g><g fill="#6a6a44" fill-opacity="1"><g transform="translate(220.604236, 70.305462)"><g><path d="M 18.878906 -6.800781 L 6.179688 3.917969 L 7.375 -12.660156 L 9.449219 -11.601562 L 8.417969 -0.300781 L 16.824219 -7.847656 Z M 18.878906 -6.800781 "/></g></g></g><g fill="#6a6a44" fill-opacity="1"><g transform="translate(236.477195, 78.708822)"><g><path d="M 10.164062 2.636719 L 5.613281 -0.671875 L 2.09375 1.523438 L 0.523438 0.378906 L 14.652344 -8.183594 L 14.75 -8.113281 L 10.964844 7.96875 L 9.132812 6.636719 Z M 10.625 0.867188 L 12.078125 -4.675781 L 7.1875 -1.628906 Z M 10.625 0.867188 "/></g></g></g><g fill="#6a6a44" fill-opacity="1"><g transform="translate(250.588727, 89.171387)"><g><path d="M 20.839844 0.386719 L 10.039062 10.957031 L 9.996094 10.910156 L 10.277344 -4.394531 L 2.859375 2.921875 L 1.472656 1.503906 L 12.246094 -9.035156 L 12.316406 -8.964844 L 11.933594 6.414062 L 19.46875 -1.015625 Z M 20.839844 0.386719 "/></g></g></g><g clip-path="url(#557ba193bb)"><g clip-path="url(#e33e43e8bc)"><g clip-path="url(#bda4fca09f)"><path fill="#6a6a44" d="M 205.695312 168.398438 C 205.054688 164.136719 202.253906 161.261719 198.304688 160.824219 C 196.339844 160.605469 194.46875 161.027344 192.699219 161.871094 C 188.4375 163.90625 185.585938 167.371094 183.210938 171.3125 C 182.929688 171.777344 182.632812 172.238281 182.214844 172.914062 C 181.960938 172.34375 181.832031 172.003906 181.664062 171.6875 C 181.125 170.652344 180.675781 169.550781 180.007812 168.609375 C 177.785156 165.46875 173.902344 165.035156 171.035156 167.613281 C 168.148438 170.207031 167.292969 173.539062 168.203125 177.203125 C 169.570312 182.734375 173.480469 186.054688 178.5 188.296875 C 176.976562 187.132812 175.355469 186.085938 173.957031 184.789062 C 171.128906 182.164062 169.417969 178.933594 169.578125 174.976562 C 169.699219 171.90625 171.058594 169.449219 173.828125 167.957031 C 175.621094 166.984375 177.355469 167.355469 178.523438 169.023438 C 179.226562 170.027344 179.851562 171.171875 180.164062 172.34375 C 180.613281 174.003906 180.710938 175.753906 181.03125 177.453125 C 181.109375 177.871094 181.46875 178.234375 181.699219 178.621094 C 181.929688 178.28125 182.257812 177.972656 182.375 177.597656 C 182.742188 176.449219 182.957031 175.25 183.355469 174.113281 C 185.386719 168.28125 189.242188 164.214844 195.230469 162.476562 C 200.039062 161.078125 203.660156 164.128906 203.4375 169.152344 C 203.339844 171.378906 202.726562 173.460938 201.78125 175.457031 C 199.277344 180.734375 195.535156 185.0625 191.308594 188.988281 C 185.726562 194.179688 179.636719 198.570312 172.140625 200.628906 C 171.847656 200.710938 171.585938 200.917969 171.308594 201.066406 C 171.316406 201.167969 171.328125 201.269531 171.335938 201.371094 C 171.738281 201.46875 172.15625 201.691406 172.535156 201.636719 C 173.875 201.460938 175.242188 201.320312 176.523438 200.921875 C 180.445312 199.699219 184.035156 197.773438 187.40625 195.441406 C 193.347656 191.328125 198.710938 186.601562 202.589844 180.414062 C 204.886719 176.753906 206.359375 172.835938 205.691406 168.398438 Z M 205.695312 168.398438 " fill-opacity="1" fill-rule="nonzero"/></g></g></g><g fill="#6a6a44" fill-opacity="1"><g transform="translate(64.180142, 222.813883)"><g><path d="M 14.050781 -0.867188 L 1.75 4.226562 L 0.992188 2.394531 L 11.550781 -1.980469 L 10.972656 -3.382812 L 12.710938 -4.101562 Z M 14.050781 -0.867188 "/></g></g></g><g fill="#6a6a44" fill-opacity="1"><g transform="translate(68.554581, 233.064429)"><g><path d="M 10.152344 1.113281 C 10.589844 2.042969 10.679688 2.953125 10.421875 3.839844 C 10.164062 4.730469 9.460938 5.484375 8.308594 6.101562 C 7.5 6.535156 6.691406 6.734375 5.878906 6.695312 C 5.070312 6.652344 4.328125 6.40625 3.65625 5.949219 C 2.980469 5.492188 2.4375 4.882812 2.03125 4.121094 C 1.730469 3.5625 1.546875 2.9375 1.476562 2.238281 C 1.410156 1.539062 1.464844 0.90625 1.648438 0.332031 L 3.550781 0.457031 C 3.390625 0.835938 3.3125 1.28125 3.328125 1.792969 C 3.34375 2.308594 3.464844 2.769531 3.6875 3.1875 C 4.050781 3.863281 4.582031 4.3125 5.285156 4.535156 C 5.984375 4.753906 6.707031 4.664062 7.457031 4.261719 C 8.121094 3.90625 8.546875 3.421875 8.730469 2.808594 C 8.914062 2.195312 8.824219 1.546875 8.453125 0.855469 C 8.171875 0.335938 7.8125 -0.125 7.371094 -0.515625 L 7.414062 -0.605469 L 12.886719 -0.167969 L 10.949219 -3.769531 L 12.609375 -4.660156 L 15.910156 1.488281 Z M 10.152344 1.113281 "/></g></g></g><g fill="#6a6a44" fill-opacity="1"><g transform="translate(75.88998, 246.396877)"><g><path d="M 8.980469 10.257812 C 8.4375 10.101562 7.765625 9.726562 6.964844 9.132812 C 6.167969 8.535156 5.53125 7.910156 5.058594 7.253906 C 4.164062 6.019531 3.628906 4.75 3.457031 3.441406 C 3.285156 2.136719 3.457031 0.90625 3.972656 -0.242188 C 4.488281 -1.390625 5.296875 -2.367188 6.402344 -3.164062 C 7.691406 -4.097656 9.003906 -4.632812 10.34375 -4.773438 C 11.6875 -4.910156 12.945312 -4.699219 14.117188 -4.132812 C 15.292969 -3.570312 16.28125 -2.738281 17.082031 -1.632812 C 17.5625 -0.96875 17.9375 -0.28125 18.207031 0.421875 C 18.476562 1.128906 18.652344 1.808594 18.730469 2.46875 L 16.890625 3 C 16.835938 2.507812 16.6875 1.945312 16.453125 1.308594 C 16.214844 0.671875 15.941406 0.140625 15.632812 -0.285156 C 14.96875 -1.203125 14.195312 -1.878906 13.3125 -2.316406 C 12.433594 -2.75 11.507812 -2.910156 10.542969 -2.792969 C 9.578125 -2.675781 8.636719 -2.285156 7.71875 -1.621094 C 6.867188 -1.003906 6.246094 -0.261719 5.859375 0.601562 C 5.46875 1.46875 5.34375 2.382812 5.484375 3.347656 C 5.625 4.308594 6.019531 5.238281 6.667969 6.136719 C 6.96875 6.550781 7.304688 6.925781 7.671875 7.257812 C 8.039062 7.59375 8.394531 7.835938 8.734375 7.988281 L 11.078125 6.289062 L 9.367188 3.929688 L 10.890625 2.824219 L 13.765625 6.789062 Z M 8.980469 10.257812 "/></g></g></g><g fill="#6a6a44" fill-opacity="1"><g transform="translate(87.881513, 262.195323)"><g><path d="M 17.988281 -2.394531 L 16.632812 -1.089844 L 13.914062 -3.921875 L 4.726562 4.914062 L 3.367188 3.5 L 12.554688 -5.335938 L 9.902344 -8.089844 L 11.257812 -9.394531 Z M 17.988281 -2.394531 "/></g></g></g><g fill="#6a6a44" fill-opacity="1"><g transform="translate(99.396959, 273.898939)"><g><path d="M 10.789062 8.4375 L 9.242188 7.230469 L 13.195312 2.179688 L 7.15625 -2.546875 L 3.203125 2.503906 L 1.65625 1.296875 L 10.671875 -10.226562 L 12.214844 -9.015625 L 8.3125 -4.027344 L 14.351562 0.695312 L 18.253906 -4.289062 L 19.800781 -3.082031 Z M 10.789062 8.4375 "/></g></g></g><g fill="#6a6a44" fill-opacity="1"><g transform="translate(115.746294, 285.98532)"><g/></g></g><g fill="#6a6a44" fill-opacity="1"><g transform="translate(125.111575, 291.642941)"><g><path d="M 7.964844 -12.449219 L 11.613281 -10.792969 C 13.269531 -10.039062 14.492188 -9.085938 15.28125 -7.9375 C 16.070312 -6.785156 16.476562 -5.578125 16.503906 -4.3125 C 16.53125 -3.050781 16.28125 -1.839844 15.757812 -0.6875 C 15.171875 0.601562 14.351562 1.605469 13.300781 2.320312 C 12.25 3.035156 11.101562 3.429688 9.851562 3.507812 C 8.601562 3.585938 7.386719 3.355469 6.207031 2.820312 L 1.914062 0.871094 Z M 6.644531 0.929688 C 7.625 1.375 8.59375 1.582031 9.542969 1.546875 C 10.492188 1.511719 11.351562 1.222656 12.121094 0.683594 C 12.894531 0.144531 13.507812 -0.632812 13.972656 -1.652344 C 14.445312 -2.695312 14.625 -3.695312 14.511719 -4.652344 C 14.398438 -5.609375 14.050781 -6.449219 13.472656 -7.179688 C 12.890625 -7.910156 12.167969 -8.472656 11.292969 -8.867188 L 8.972656 -9.921875 L 4.488281 -0.0507812 Z M 6.644531 0.929688 "/></g></g></g><g fill="#6a6a44" fill-opacity="1"><g transform="translate(143.397831, 299.50005)"><g><path d="M 15.222656 -10.820312 L 14.699219 -9.015625 L 7.449219 -11.113281 L 6.210938 -6.835938 L 12.683594 -4.964844 L 12.160156 -3.15625 L 5.6875 -5.03125 L 4.433594 -0.695312 L 11.957031 1.480469 L 11.425781 3.308594 L 2.019531 0.585938 L 6.089844 -13.464844 Z M 15.222656 -10.820312 "/></g></g></g><g fill="#6a6a44" fill-opacity="1"><g transform="translate(160.617825, 304.176946)"><g><path d="M 12.871094 0.734375 C 12.363281 0.976562 11.730469 1.175781 10.976562 1.332031 C 10.226562 1.492188 9.429688 1.511719 8.589844 1.390625 C 7.105469 1.179688 5.847656 0.664062 4.8125 -0.148438 C 3.777344 -0.964844 3.039062 -1.972656 2.589844 -3.164062 C 2.140625 -4.359375 2.007812 -5.625 2.199219 -6.960938 C 2.40625 -8.390625 2.894531 -9.632812 3.671875 -10.683594 C 4.449219 -11.738281 5.429688 -12.511719 6.609375 -13.003906 C 7.789062 -13.496094 9.066406 -13.644531 10.445312 -13.449219 C 11.257812 -13.332031 12.003906 -13.117188 12.679688 -12.800781 C 13.359375 -12.484375 13.953125 -12.113281 14.464844 -11.6875 L 13.421875 -9.976562 C 12.421875 -10.882812 11.359375 -11.417969 10.238281 -11.578125 C 9.304688 -11.710938 8.402344 -11.585938 7.539062 -11.207031 C 6.671875 -10.824219 5.941406 -10.246094 5.347656 -9.464844 C 4.753906 -8.683594 4.382812 -7.789062 4.238281 -6.773438 C 4.089844 -5.730469 4.171875 -4.757812 4.484375 -3.855469 C 4.796875 -2.953125 5.324219 -2.207031 6.066406 -1.617188 C 6.804688 -1.027344 7.703125 -0.65625 8.757812 -0.507812 C 10.054688 -0.320312 11.234375 -0.527344 12.300781 -1.125 Z M 12.871094 0.734375 "/></g></g></g><g fill="#6a6a44" fill-opacity="1"><g transform="translate(179.146734, 306.467814)"><g><path d="M 11.644531 -14.601562 L 11.640625 -12.722656 L 4.09375 -12.738281 L 4.082031 -8.285156 L 10.820312 -8.273438 L 10.816406 -6.390625 L 4.078125 -6.40625 L 4.070312 -1.894531 L 11.898438 -1.878906 L 11.894531 0.0234375 L 2.105469 0.00390625 L 2.132812 -14.625 Z M 11.644531 -14.601562 "/></g></g></g><g fill="#6a6a44" fill-opacity="1"><g transform="translate(197.087096, 306.349723)"><g><path d="M 14.097656 -17.503906 L 16.449219 -2.59375 L 14.527344 -2.289062 L 13.054688 -11.644531 L 8.925781 -3.269531 L 8.886719 -3.265625 L 2.523438 -9.71875 L 3.957031 -0.625 L 2.078125 -0.328125 L -0.273438 -15.238281 L -0.253906 -15.238281 L 8.449219 -6.289062 L 14.078125 -17.5 Z M 14.097656 -17.503906 "/></g></g></g><g fill="#6a6a44" fill-opacity="1"><g transform="translate(220.140586, 302.100842)"><g><path d="M 5.871094 -9.867188 C 6.769531 -9.816406 7.539062 -9.578125 8.183594 -9.15625 C 8.832031 -8.734375 9.277344 -8.144531 9.519531 -7.386719 C 9.808594 -6.503906 9.828125 -5.699219 9.585938 -4.976562 C 9.347656 -4.253906 8.917969 -3.640625 8.308594 -3.136719 C 7.699219 -2.636719 6.976562 -2.25 6.140625 -1.980469 L 2.003906 -0.644531 L -2.488281 -14.566406 L 1.109375 -15.730469 C 2.535156 -16.1875 3.734375 -16.253906 4.707031 -15.921875 C 5.675781 -15.589844 6.351562 -14.839844 6.726562 -13.671875 C 6.964844 -12.941406 7.007812 -12.25 6.855469 -11.597656 C 6.703125 -10.945312 6.375 -10.371094 5.871094 -9.867188 Z M 1.339844 -9.085938 L 3.460938 -9.769531 C 4.179688 -10 4.652344 -10.382812 4.886719 -10.910156 C 5.121094 -11.4375 5.132812 -12.023438 4.925781 -12.664062 C 4.699219 -13.371094 4.3125 -13.828125 3.761719 -14.035156 C 3.214844 -14.238281 2.546875 -14.214844 1.765625 -13.964844 L -0.0429688 -13.378906 Z M 5.507812 -3.691406 C 6.316406 -3.949219 6.921875 -4.347656 7.332031 -4.886719 C 7.738281 -5.421875 7.828125 -6.042969 7.601562 -6.746094 C 7.367188 -7.480469 6.90625 -7.925781 6.222656 -8.089844 C 5.539062 -8.25 4.792969 -8.203125 3.984375 -7.941406 L 1.925781 -7.277344 L 3.3125 -2.980469 Z M 5.507812 -3.691406 "/></g></g></g><g fill="#6a6a44" fill-opacity="1"><g transform="translate(236.351928, 296.568179)"><g><path d="M 4.167969 -18.207031 L 4.980469 -16.507812 L -1.828125 -13.253906 L 0.0898438 -9.238281 L 6.167969 -12.144531 L 6.980469 -10.445312 L 0.902344 -7.539062 L 2.847656 -3.46875 L 9.914062 -6.847656 L 10.734375 -5.132812 L 1.898438 -0.90625 L -4.410156 -14.105469 Z M 4.167969 -18.207031 "/></g></g></g><g fill="#6a6a44" fill-opacity="1"><g transform="translate(252.302312, 288.600111)"><g><path d="M 8.476562 -5.59375 L 2.632812 -8.207031 C 2.550781 -8.136719 2.417969 -8.042969 2.238281 -7.921875 L 0.429688 -6.730469 L 3.394531 -2.238281 L 1.757812 -1.160156 L -6.296875 -13.371094 L -3.039062 -15.519531 C -2.203125 -16.070312 -1.363281 -16.414062 -0.519531 -16.550781 C 0.328125 -16.6875 1.125 -16.597656 1.871094 -16.273438 C 2.617188 -15.949219 3.253906 -15.386719 3.78125 -14.585938 C 4.277344 -13.832031 4.570312 -13.03125 4.652344 -12.183594 C 4.738281 -11.332031 4.542969 -10.519531 4.070312 -9.738281 L 10.386719 -6.851562 Z M 1.15625 -9.488281 C 2.035156 -10.066406 2.515625 -10.714844 2.601562 -11.433594 C 2.683594 -12.152344 2.53125 -12.808594 2.136719 -13.40625 C 1.898438 -13.765625 1.582031 -14.066406 1.191406 -14.308594 C 0.796875 -14.550781 0.347656 -14.667969 -0.160156 -14.667969 C -0.667969 -14.664062 -1.191406 -14.484375 -1.730469 -14.125 L -3.625 -12.878906 L -0.617188 -8.320312 Z M 1.15625 -9.488281 "/></g></g></g><g fill="#6a6a44" fill-opacity="1"><g transform="translate(266.954384, 278.408929)"><g/></g></g><g fill="#6a6a44" fill-opacity="1"><g transform="translate(275.238497, 271.382807)"><g><path d="M 5.761719 -8.578125 L 7.117188 -7.246094 L 0.765625 -0.777344 L 0.757812 -1.722656 C 0.742188 -3.667969 0.699219 -5.214844 0.632812 -6.359375 C 0.5625 -7.5 0.402344 -8.5625 0.144531 -9.542969 C -0.109375 -10.523438 -0.519531 -11.289062 -1.078125 -11.835938 C -1.664062 -12.414062 -2.28125 -12.679688 -2.929688 -12.636719 C -3.578125 -12.59375 -4.148438 -12.320312 -4.636719 -11.820312 C -5.027344 -11.425781 -5.269531 -11.015625 -5.363281 -10.589844 C -5.460938 -10.164062 -5.441406 -9.769531 -5.3125 -9.402344 C -5.179688 -9.035156 -4.988281 -8.730469 -4.738281 -8.484375 C -4.121094 -7.878906 -3.433594 -7.570312 -2.671875 -7.558594 L -2.726562 -5.941406 C -3.230469 -5.8125 -3.808594 -5.875 -4.460938 -6.128906 C -5.109375 -6.378906 -5.636719 -6.703125 -6.042969 -7.101562 C -6.570312 -7.621094 -6.933594 -8.238281 -7.132812 -8.949219 C -7.328125 -9.664062 -7.316406 -10.40625 -7.101562 -11.175781 C -6.882812 -11.945312 -6.433594 -12.675781 -5.753906 -13.371094 C -5.175781 -13.957031 -4.527344 -14.34375 -3.804688 -14.53125 C -3.082031 -14.71875 -2.367188 -14.710938 -1.65625 -14.507812 C -0.949219 -14.304688 -0.320312 -13.933594 0.226562 -13.394531 C 0.773438 -12.855469 1.195312 -12.183594 1.488281 -11.386719 C 1.78125 -10.589844 1.980469 -9.761719 2.089844 -8.910156 C 2.195312 -8.058594 2.292969 -6.964844 2.382812 -5.628906 L 2.414062 -5.171875 Z M 5.761719 -8.578125 "/></g></g></g><g fill="#6a6a44" fill-opacity="1"><g transform="translate(286.002692, 260.097467)"><g><path d="M 3.875 -4.984375 C 3.210938 -4.117188 2.40625 -3.511719 1.460938 -3.171875 C 0.515625 -2.832031 -0.507812 -2.785156 -1.609375 -3.03125 C -2.710938 -3.277344 -3.808594 -3.816406 -4.902344 -4.648438 C -6.648438 -5.984375 -7.683594 -7.390625 -8 -8.878906 C -8.316406 -10.367188 -7.941406 -11.800781 -6.875 -13.175781 C -6.214844 -14.042969 -5.414062 -14.648438 -4.472656 -14.992188 C -3.53125 -15.335938 -2.511719 -15.386719 -1.410156 -15.140625 C -0.308594 -14.894531 0.78125 -14.359375 1.867188 -13.535156 C 2.984375 -12.683594 3.804688 -11.761719 4.335938 -10.761719 C 4.863281 -9.765625 5.085938 -8.769531 5.003906 -7.773438 C 4.925781 -6.773438 4.546875 -5.84375 3.875 -4.984375 Z M 2.363281 -6.109375 C 3.058594 -7.019531 3.238281 -7.992188 2.902344 -9.019531 C 2.566406 -10.046875 1.800781 -11.023438 0.609375 -11.949219 C -0.570312 -12.828125 -1.691406 -13.289062 -2.753906 -13.328125 C -3.816406 -13.367188 -4.695312 -12.929688 -5.390625 -12.019531 C -6.078125 -11.117188 -6.257812 -10.160156 -5.925781 -9.144531 C -5.597656 -8.132812 -4.847656 -7.167969 -3.675781 -6.257812 C -2.476562 -5.363281 -1.339844 -4.886719 -0.269531 -4.835938 C 0.800781 -4.78125 1.679688 -5.207031 2.363281 -6.109375 Z M 2.363281 -6.109375 "/></g></g></g><g fill="#6a6a44" fill-opacity="1"><g transform="translate(296.148581, 246.217222)"><g><path d="M 3.449219 -9.738281 L 5.09375 -8.785156 L 0.546875 -0.945312 L 0.304688 -1.859375 C -0.195312 -3.738281 -0.621094 -5.222656 -0.96875 -6.316406 C -1.316406 -7.40625 -1.738281 -8.394531 -2.230469 -9.28125 C -2.722656 -10.167969 -3.308594 -10.804688 -3.984375 -11.199219 C -4.695312 -11.609375 -5.359375 -11.714844 -5.976562 -11.511719 C -6.59375 -11.308594 -7.078125 -10.902344 -7.429688 -10.296875 C -7.707031 -9.816406 -7.839844 -9.359375 -7.828125 -8.925781 C -7.816406 -8.488281 -7.699219 -8.109375 -7.480469 -7.789062 C -7.261719 -7.464844 -7 -7.21875 -6.699219 -7.042969 C -5.953125 -6.609375 -5.207031 -6.480469 -4.464844 -6.660156 L -4.117188 -5.078125 C -4.574219 -4.828125 -5.148438 -4.746094 -5.84375 -4.828125 C -6.535156 -4.910156 -7.128906 -5.09375 -7.617188 -5.375 C -8.257812 -5.75 -8.765625 -6.253906 -9.132812 -6.898438 C -9.5 -7.539062 -9.675781 -8.261719 -9.65625 -9.058594 C -9.636719 -9.859375 -9.382812 -10.679688 -8.894531 -11.519531 C -8.484375 -12.230469 -7.949219 -12.769531 -7.296875 -13.128906 C -6.640625 -13.492188 -5.945312 -13.660156 -5.210938 -13.640625 C -4.476562 -13.617188 -3.773438 -13.414062 -3.109375 -13.027344 C -2.445312 -12.644531 -1.871094 -12.101562 -1.386719 -11.398438 C -0.90625 -10.699219 -0.507812 -9.949219 -0.191406 -9.148438 C 0.125 -8.351562 0.492188 -7.316406 0.910156 -6.042969 L 1.054688 -5.609375 Z M 3.449219 -9.738281 "/></g></g></g><g fill="#6a6a44" fill-opacity="1"><g transform="translate(303.712148, 232.621109)"><g><path d="M -5.921875 -8.222656 C -5.574219 -9.027344 -5.097656 -9.640625 -4.488281 -10.0625 C -3.882812 -10.484375 -3.210938 -10.710938 -2.484375 -10.75 C -1.753906 -10.789062 -1.019531 -10.644531 -0.277344 -10.324219 C 0.492188 -9.992188 1.113281 -9.515625 1.59375 -8.886719 C 2.074219 -8.261719 2.363281 -7.5625 2.460938 -6.792969 C 2.5625 -6.023438 2.445312 -5.253906 2.117188 -4.484375 C 1.84375 -3.855469 1.457031 -3.285156 0.960938 -2.78125 C 0.460938 -2.277344 -0.0546875 -1.910156 -0.59375 -1.6875 L -1.585938 -3.265625 C -1.195312 -3.390625 -0.824219 -3.617188 -0.472656 -3.953125 C -0.125 -4.285156 0.140625 -4.664062 0.324219 -5.082031 C 0.617188 -5.765625 0.640625 -6.417969 0.390625 -7.050781 C 0.140625 -7.679688 -0.328125 -8.144531 -1.023438 -8.441406 C -1.777344 -8.769531 -2.476562 -8.824219 -3.121094 -8.613281 C -3.765625 -8.398438 -4.253906 -7.90625 -4.585938 -7.140625 C -4.761719 -6.730469 -4.871094 -6.3125 -4.917969 -5.882812 C -4.964844 -5.457031 -4.957031 -4.984375 -4.898438 -4.476562 L -4.90625 -4.457031 L -11.367188 -7.25 L -8.839844 -13.101562 L -7.113281 -12.355469 L -8.96875 -8.0625 L -6.3125 -6.917969 C -6.238281 -7.355469 -6.109375 -7.792969 -5.921875 -8.222656 Z M -5.921875 -8.222656 "/></g></g></g><g clip-path="url(#82c9f4883a)"><path fill="#6a6a44" d="M 204.832031 141.328125 C 204.582031 141.378906 204.257812 141.421875 203.941406 141.511719 C 202.835938 141.816406 201.730469 142.117188 200.605469 142.363281 C 198.878906 142.738281 197.167969 143.195312 195.441406 143.585938 C 193.109375 144.117188 190.765625 144.589844 188.4375 145.148438 C 185.792969 145.78125 183.15625 146.460938 180.527344 147.171875 C 177.871094 147.890625 175.230469 148.667969 172.582031 149.417969 C 172.199219 149.527344 171.820312 149.621094 171.441406 149.730469 C 169.898438 150.167969 168.359375 150.628906 166.804688 151.039062 C 164.714844 151.59375 162.613281 152.105469 160.519531 152.644531 C 159.09375 153.011719 157.671875 153.40625 156.242188 153.761719 C 153.15625 154.519531 150.066406 155.273438 146.972656 156.007812 C 144.738281 156.535156 142.519531 157.121094 140.222656 157.351562 C 139.464844 157.429688 138.71875 157.441406 137.980469 157.25 C 137.363281 157.082031 136.945312 156.703125 136.8125 156.050781 C 136.699219 155.472656 136.621094 154.902344 136.75 154.300781 C 136.949219 153.371094 137.09375 152.429688 137.257812 151.492188 C 137.289062 151.300781 137.304688 151.101562 137.371094 150.921875 C 137.695312 150.078125 137.695312 149.1875 137.738281 148.308594 C 137.75 147.929688 137.648438 147.515625 137.183594 147.203125 C 136.96875 147.15625 136.652344 147.082031 136.394531 147.023438 C 135.179688 147.492188 134.191406 148.183594 133.242188 148.941406 C 132.835938 149.269531 132.457031 149.636719 132.027344 149.925781 C 131.042969 150.585938 130.113281 151.304688 129.214844 152.070312 C 128.875 152.359375 128.527344 152.628906 128.058594 152.878906 C 128.097656 152.699219 128.097656 152.605469 128.132812 152.527344 C 129.074219 150.617188 130.039062 148.71875 131.125 146.886719 C 131.445312 146.351562 131.761719 145.8125 132.050781 145.261719 C 132.25 144.886719 132.4375 144.503906 132.519531 144.035156 C 132.417969 143.859375 132.304688 143.667969 132.191406 143.484375 C 131.898438 143.453125 131.644531 143.429688 131.378906 143.402344 C 131.242188 143.53125 131.097656 143.621094 131.011719 143.753906 C 130.582031 144.371094 130.160156 144.992188 129.753906 145.621094 C 129.460938 146.085938 129.25 146.617188 128.902344 147.035156 C 128.367188 147.671875 127.96875 148.390625 127.613281 149.121094 C 127.386719 149.589844 127.136719 150.054688 126.867188 150.480469 C 126.363281 151.257812 125.96875 152.078125 125.585938 152.910156 C 125.296875 153.53125 125.035156 154.160156 124.804688 154.800781 C 124.671875 155.175781 124.714844 155.578125 124.820312 155.976562 C 125.027344 156.179688 125.234375 156.382812 125.414062 156.5625 C 126.03125 156.832031 126.539062 156.617188 127.027344 156.3125 C 127.695312 155.894531 128.277344 155.367188 128.863281 154.84375 C 129.742188 154.054688 130.667969 153.320312 131.574219 152.566406 C 132.328125 151.9375 133.066406 151.285156 133.855469 150.695312 C 134.429688 150.269531 135.046875 149.894531 135.566406 149.386719 C 135.679688 149.277344 135.855469 149.230469 136.058594 149.445312 C 135.972656 149.691406 135.867188 149.898438 135.832031 150.121094 C 135.636719 151.417969 135.433594 152.714844 135.285156 154.019531 C 135.226562 154.535156 135.269531 155.070312 135.324219 155.589844 C 135.367188 155.976562 135.464844 156.367188 135.609375 156.730469 C 135.925781 157.535156 136.480469 158.117188 137.351562 158.328125 C 137.542969 158.375 137.734375 158.425781 137.925781 158.449219 C 138.878906 158.570312 139.839844 158.53125 140.769531 158.359375 C 142.21875 158.09375 143.65625 157.773438 145.085938 157.40625 C 147.4375 156.804688 149.769531 156.144531 152.117188 155.527344 C 154.84375 154.804688 157.574219 154.097656 160.296875 153.386719 C 161.027344 153.195312 161.75 152.988281 162.480469 152.796875 C 163.90625 152.425781 165.339844 152.074219 166.761719 151.683594 C 168.757812 151.140625 170.738281 150.566406 172.726562 150.007812 C 174.300781 149.566406 175.882812 149.136719 177.457031 148.6875 C 178.84375 148.289062 180.21875 147.859375 181.609375 147.476562 C 182.78125 147.15625 183.960938 146.878906 185.132812 146.585938 C 185.546875 146.480469 185.957031 146.363281 186.371094 146.265625 C 189.019531 145.65625 191.667969 145.042969 194.339844 144.53125 C 196.789062 144.0625 199.21875 143.519531 201.660156 143.015625 C 202.171875 142.910156 202.691406 142.835938 203.210938 142.75 C 203.234375 142.746094 203.265625 142.777344 203.292969 142.796875 C 203.066406 143.136719 202.84375 143.476562 202.640625 143.789062 C 202.675781 144.011719 202.703125 144.175781 202.726562 144.320312 C 203.601562 144.894531 204.007812 144.890625 204.796875 144.339844 C 205.273438 144.011719 205.519531 143.507812 205.859375 143.050781 L 205.859375 142.027344 C 205.648438 141.589844 205.3125 141.414062 204.828125 141.324219 Z M 204.832031 141.328125 " fill-opacity="1" fill-rule="nonzero"/></g><g clip-path="url(#f8f29ebafe)"><path fill="#6a6a44" d="M 248.1875 214.097656 C 248.09375 214.074219 247.964844 214.003906 247.859375 214.03125 C 247.699219 214.070312 247.550781 214.164062 247.402344 214.25 C 246.042969 215.042969 244.738281 215.933594 243.351562 216.691406 C 242.417969 217.203125 241.484375 217.710938 240.542969 218.195312 C 238.988281 218.996094 237.40625 219.71875 235.691406 220.152344 C 234.414062 220.476562 233.132812 220.660156 231.820312 220.566406 C 230.683594 220.484375 229.667969 220.136719 228.847656 219.289062 C 228.769531 218.941406 228.503906 218.632812 228.605469 218.171875 C 228.90625 218.054688 229.222656 217.921875 229.539062 217.804688 C 230.960938 217.277344 232.300781 216.589844 233.511719 215.671875 C 234.113281 215.21875 234.738281 214.789062 235.296875 214.285156 C 236.207031 213.460938 237.054688 212.566406 237.617188 211.453125 C 237.753906 211.183594 237.898438 210.902344 237.96875 210.609375 C 238.253906 209.34375 237.636719 208.453125 236.304688 208.328125 C 236.167969 208.3125 236.027344 208.300781 235.894531 208.328125 C 235.492188 208.40625 235.089844 208.5 234.6875 208.59375 C 233.34375 208.898438 232.242188 209.664062 231.171875 210.464844 C 230.183594 211.207031 229.328125 212.089844 228.636719 213.117188 C 228.027344 214.023438 227.503906 214.984375 227.316406 216.082031 C 227.238281 216.546875 227.164062 217.015625 227.085938 217.507812 C 225.609375 217.925781 224.148438 218.363281 222.648438 218.648438 C 220.574219 219.042969 218.523438 219.546875 216.449219 219.910156 C 213.191406 220.480469 209.921875 220.921875 206.636719 221.226562 C 202.894531 221.574219 199.144531 221.785156 195.390625 221.773438 C 191.957031 221.761719 188.535156 221.59375 185.113281 221.28125 C 181.234375 220.925781 177.390625 220.378906 173.65625 219.15625 C 171.980469 218.609375 170.441406 217.773438 169.109375 216.542969 C 168.917969 216.367188 168.773438 216.128906 168.613281 215.925781 C 168.996094 215.472656 169.496094 215.207031 169.484375 214.496094 C 169.394531 214.242188 169.28125 213.921875 169.15625 213.574219 C 168.761719 213.5 168.363281 213.421875 168.132812 213.375 C 166.882812 213.507812 167.042969 214.726562 166.472656 215.253906 C 166.5625 215.949219 166.714844 216.574219 167.234375 216.964844 C 167.832031 217.414062 168.445312 217.847656 169.089844 218.210938 C 170.75 219.144531 172.53125 219.777344 174.351562 220.242188 C 178.273438 221.25 182.261719 221.816406 186.28125 222.152344 C 189.429688 222.417969 192.589844 222.539062 195.75 222.503906 C 198.175781 222.476562 200.601562 222.414062 203.019531 222.257812 C 205.625 222.089844 208.222656 221.835938 210.8125 221.542969 C 214.132812 221.164062 217.4375 220.621094 220.710938 219.917969 C 222.90625 219.445312 225.082031 218.84375 227.265625 218.304688 C 227.265625 218.304688 227.269531 218.304688 227.269531 218.300781 C 227.3125 218.410156 227.351562 218.523438 227.390625 218.636719 C 227.894531 220.132812 228.894531 221.132812 230.429688 221.582031 C 231.890625 222.003906 233.359375 221.90625 234.816406 221.554688 C 236.183594 221.222656 237.480469 220.691406 238.792969 220.1875 C 240.472656 219.542969 242.035156 218.714844 243.527344 217.738281 C 244.359375 217.191406 245.183594 216.640625 246 216.074219 C 246.648438 215.621094 247.277344 215.144531 247.910156 214.671875 C 248.070312 214.546875 248.21875 214.402344 248.179688 214.097656 Z M 228.574219 216.289062 C 228.714844 215.832031 228.871094 215.378906 229.042969 214.9375 C 229.164062 214.621094 229.320312 214.316406 229.492188 213.9375 C 230.046875 213.347656 230.628906 212.671875 231.269531 212.058594 C 232.519531 210.847656 233.996094 209.996094 235.734375 209.5625 C 235.972656 209.617188 236.234375 209.683594 236.492188 209.746094 C 236.515625 209.890625 236.566406 209.992188 236.546875 210.082031 C 236.347656 211.054688 235.765625 211.800781 235.074219 212.488281 C 233.359375 214.195312 231.3125 215.4375 229.167969 216.53125 C 229.019531 216.605469 228.847656 216.632812 228.625 216.695312 C 228.601562 216.527344 228.542969 216.394531 228.574219 216.289062 Z M 228.574219 216.289062 " fill-opacity="1" fill-rule="nonzero"/></g></svg>